name C:\Users\antoi\Documents\MyRepositories\upper-imu-dc\Results\main_tracking\Case_76\FLX01_linearAccelerations_bodyFrame.mot
datacolumns 4
datarows 105
range 2.01000000 3.05000000
endheader 
time	radius_imu_x	radius_imu_y	radius_imu_z	
          2.01000000	         -3.48299606	         -3.47402467	          7.63896566	
          2.02000000	         -3.44057499	         -3.58563105	          7.59713665	
          2.03000000	         -3.40243273	         -3.69689562	          7.55721676	
          2.04000000	         -3.36911297	         -3.80780344	          7.51859421	
          2.05000000	         -3.34095752	         -3.91828311	          7.48081913	
          2.06000000	         -3.31809336	         -4.02819756	          7.44355711	
          2.07000000	         -3.30049271	         -4.13735958	          7.40651276	
          2.08000000	         -3.28808189	         -4.24556418	          7.36936307	
          2.09000000	         -3.28082937	         -4.35262446	          7.33172010	
          2.10000000	         -3.27876817	         -4.45841037	          7.29311356	
          2.11000000	         -3.28193538	         -4.56288094	          7.25304376	
          2.12000000	         -3.29028046	         -4.66610310	          7.21103005	
          2.13000000	         -3.30360760	         -4.76823815	          7.16664589	
          2.14000000	         -3.32159219	         -4.86949113	          7.11953114	
          2.15000000	         -3.34382367	         -4.97004163	          7.06938464	
          2.16000000	         -3.36980232	         -5.06998561	          7.01595401	
          2.17000000	         -3.39887376	         -5.16931155	          6.95903518	
          2.18000000	         -3.43013651	         -5.26791010	          6.89848388	
          2.19000000	         -3.46238068	         -5.36560777	          6.83423007	
          2.20000000	         -3.49410657	         -5.46220533	          6.76627791	
          2.21000000	         -3.52365221	         -5.55750833	          6.69468066	
          2.22000000	         -3.54939470	         -5.65132835	          6.61949735	
          2.23000000	         -3.56999285	         -5.74346807	          6.54073145	
          2.24000000	         -3.58456786	         -5.83372457	          6.45826728	
          2.25000000	         -3.59276400	         -5.92191034	          6.37182354	
          2.26000000	         -3.59466786	         -6.00788791	          6.28095463	
          2.27000000	         -3.59062547	         -6.09160001	          6.18512680	
          2.28000000	         -3.58103857	         -6.17308472	          6.08387245	
          2.29000000	         -3.56621558	         -6.25247308	          5.97699187	
          2.30000000	         -3.54630530	         -6.32997134	          5.86474605	
          2.31000000	         -3.52127667	         -6.40583245	          5.74797952	
          2.32000000	         -3.49101307	         -6.48032155	          5.62813217	
          2.33000000	         -3.45540323	         -6.55367675	          5.50714723	
          2.34000000	         -3.41448460	         -6.62607278	          5.38728196	
          2.35000000	         -3.36857225	         -6.69760221	          5.27085060	
          2.36000000	         -3.31831674	         -6.76828181	          5.15996940	
          2.37000000	         -3.26466726	         -6.83807114	          5.05638991	
          2.38000000	         -3.20874284	         -6.90688710	          4.96146137	
          2.39000000	         -3.15164820	         -6.97461625	          4.87618859	
          2.40000000	         -3.09430249	         -7.04113007	          4.80130928	
          2.41000000	         -3.03734797	         -7.10629949	          4.73732690	
          2.42000000	         -2.98116075	         -7.17000712	          4.68448277	
          2.43000000	         -2.92593369	         -7.23216176	          4.64269583	
          2.44000000	         -2.87178459	         -7.29271310	          4.61151242	
          2.45000000	         -2.81885314	         -7.35165937	          4.59008973	
          2.46000000	         -2.76736702	         -7.40904646	          4.57721138	
          2.47000000	         -2.71767010	         -7.46496199	          4.57132564	
          2.48000000	         -2.67022073	         -7.51952550	          4.57060332	
          2.49000000	         -2.62557450	         -7.57287325	          4.57302386	
          2.50000000	         -2.58434595	         -7.62514329	          4.57650437	
          2.51000000	         -2.54712334	         -7.67646835	          4.57906778	
          2.52000000	         -2.51433950	         -7.72697356	          4.57901649	
          2.53000000	         -2.48612731	         -7.77675523	          4.57506747	
          2.54000000	         -2.46221460	         -7.82586176	          4.56640669	
          2.55000000	         -2.44190266	         -7.87430778	          4.55266154	
          2.56000000	         -2.42413990	         -7.92206146	          4.53382975	
          2.57000000	         -2.40767078	         -7.96907504	          4.51017404	
          2.58000000	         -2.39123456	         -8.01530236	          4.48211059	
          2.59000000	         -2.37376238	         -8.06068437	          4.45011037	
          2.60000000	         -2.35452129	         -8.10513112	          4.41462764	
          2.61000000	         -2.33316993	         -8.14850877	          4.37606308	
          2.62000000	         -2.30972006	         -8.19065245	          4.33475388	
          2.63000000	         -2.28443097	         -8.23140804	          4.29096890	
          2.64000000	         -2.25768154	         -8.27068124	          4.24488847	
          2.65000000	         -2.22987493	         -8.30847137	          4.19656870	
          2.66000000	         -2.20138661	         -8.34487983	          4.14591105	
          2.67000000	         -2.17255702	         -8.38009348	          4.09267530	
          2.68000000	         -2.14368756	         -8.41434816	          4.03654510	
          2.69000000	         -2.11503451	         -8.44787801	          3.97722989	
          2.70000000	         -2.08679420	         -8.48085850	          3.91455072	
          2.71000000	         -2.05908419	         -8.51335946	          3.84847185	
          2.72000000	         -2.03191340	         -8.54532563	          3.77908650	
          2.73000000	         -2.00512039	         -8.57659278	          3.70660399	
          2.74000000	         -1.97829982	         -8.60693929	          3.63133647	
          2.75000000	         -1.95072613	         -8.63615621	          3.55371978	
          2.76000000	         -1.92138197	         -8.66410863	          3.47432723	
          2.77000000	         -1.88922992	         -8.69076155	          3.39384458	
          2.78000000	         -1.85350613	         -8.71616520	          3.31303128	
          2.79000000	         -1.81310955	         -8.74042917	          3.23267753	
          2.80000000	         -1.76675150	         -8.76371873	          3.15336956	
          2.81000000	         -1.71496409	         -8.78621326	          3.07555668	
          2.82000000	         -1.65742003	         -8.80811374	          2.99959815	
          2.83000000	         -1.59424068	         -8.82964523	          2.92577589	
          2.84000000	         -1.52611482	         -8.85104993	          2.85423004	
          2.85000000	         -1.45391454	         -8.87257073	          2.78492794	
          2.86000000	         -1.37852515	         -8.89442361	          2.71766126	
          2.87000000	         -1.30078592	         -8.91677134	          2.65209484	
          2.88000000	         -1.22146941	         -8.93971114	          2.58787658	
          2.89000000	         -1.14127955	         -8.96327943	          2.52476899	
          2.90000000	         -1.06082678	         -8.98746742	          2.46275059	
          2.91000000	         -0.98050020	         -9.01224119	          2.40204307	
          2.92000000	         -0.90052130	         -9.03755258	          2.34314288	
          2.93000000	         -0.82105384	         -9.06334308	          2.28679851	
          2.94000000	         -0.74203663	         -9.08955140	          2.23386571	
          2.95000000	         -0.66338651	         -9.11610205	          2.18525939	
          2.96000000	         -0.58510524	         -9.14288469	          2.14187612	
          2.97000000	         -0.50735017	         -9.16972732	          2.10449223	
          2.98000000	         -0.43050171	         -9.19637393	          2.07366592	
          2.99000000	         -0.35518090	         -9.22248804	          2.04967820	
          3.00000000	         -0.28218963	         -9.24769309	          2.03253228	
          3.01000000	         -0.21239395	         -9.27163186	          2.02199862	
          3.02000000	         -0.14660203	         -9.29401270	          2.01767384	
          3.03000000	         -0.08548302	         -9.31462399	          2.01902672	
          3.04000000	         -0.02954758	         -9.33332093	          2.02541927	
          3.05000000	          0.02081798	         -9.34999918	          2.03612736	
